<?xml version="1.0" encoding="UTF-8"?>
<svg version="1.1" xmlns="http://www.w3.org/2000/svg" width="512" height="512">
<path d="M0 0 C1.51985335 -0.00544076 3.03970141 -0.01257421 4.55953979 -0.02124023 C8.62712373 -0.03922779 12.69429477 -0.03251441 16.76188445 -0.01972389 C21.04181261 -0.00948729 25.32170903 -0.01901689 29.60163879 -0.02526855 C36.77208725 -0.03250565 43.9423698 -0.02305251 51.11279297 -0.00390625 C59.39230495 0.01794662 67.67142414 0.01073467 75.95092696 -0.01121187 C83.08849353 -0.02936976 90.22594206 -0.03192506 97.36352426 -0.0214572 C101.61462467 -0.01523611 105.86554026 -0.01435022 110.11662865 -0.02760315 C114.1035684 -0.03917005 118.09000025 -0.03112122 122.07688522 -0.00802612 C123.5369603 -0.00274739 124.99707829 -0.00423856 126.45713615 -0.01307678 C128.45315374 -0.0240447 130.44926504 -0.00783731 132.44523621 0.00964355 C134.11835515 0.01190571 134.11835515 0.01190571 135.82527447 0.01421356 C140.39686951 0.75378741 143.41026344 3.09635013 146.74926758 6.20507812 C149.30439832 11.18085905 149.38003226 15.95311455 147.87426758 21.26757812 C145.12781485 25.87453109 142.14243813 28.78235461 136.93676758 30.51757812 C134.97238523 30.61426516 133.004856 30.65092416 131.0381012 30.65560913 C129.80602432 30.66106247 128.57394745 30.66651581 127.30453491 30.6721344 C125.93658453 30.67325421 124.56863408 30.67430473 123.20068359 30.67529297 C121.76160019 30.67996186 120.32251826 30.68510555 118.88343811 30.69068909 C115.7814148 30.70197149 112.67940112 30.71040529 109.57736397 30.71680832 C104.6632697 30.72750007 99.74924401 30.74775109 94.83518982 30.76992798 C80.86004809 30.83180289 66.88490942 30.88575931 52.90966797 30.91894531 C45.19327792 30.93734926 37.47700196 30.96636206 29.76069587 31.00695002 C25.6813781 31.02793317 21.60220362 31.04346478 17.52282906 31.04575729 C13.67728759 31.04792076 9.83204379 31.06396101 5.98659325 31.09014702 C4.58388542 31.09727885 3.18114127 31.09947111 1.77841949 31.09604454 C-15.25309147 31.06112129 -29.51475313 35.13806518 -43.06323242 45.51757812 C-43.6794043 45.95585938 -44.29557617 46.39414062 -44.93041992 46.84570312 C-56.16088283 55.43674848 -63.74368907 70.84459898 -66.06323242 84.51757812 C-66.35789224 89.1557062 -66.34599051 93.7852259 -66.33738708 98.43151855 C-66.34184418 99.84595411 -66.34715977 101.26038717 -66.35325581 102.67481661 C-66.36739012 106.54801279 -66.36909997 110.42112854 -66.3686589 114.29434681 C-66.37031119 118.47725382 -66.38338551 122.66012809 -66.39485168 126.84301758 C-66.41767048 135.98382205 -66.42561916 145.12460326 -66.43067813 154.26543236 C-66.43393925 159.97835509 -66.44046429 165.69127112 -66.44767952 171.40419006 C-66.46724258 187.23669975 -66.48364811 203.06920322 -66.48655605 218.90172577 C-66.48674362 219.91427808 -66.48693119 220.92683039 -66.48712445 221.9700661 C-66.48749069 224.02256807 -66.48785438 226.07507003 -66.48821556 228.127572 C-66.48839837 229.14637168 -66.48858118 230.16517136 -66.48876953 231.21484375 C-66.48895008 232.23489425 -66.48913063 233.25494475 -66.48931665 234.30590588 C-66.49285599 250.82308846 -66.51986468 267.34014048 -66.55726742 283.85727781 C-66.59540369 300.83492162 -66.61471393 317.81250074 -66.61501557 334.79018831 C-66.61559899 344.31453147 -66.62401662 353.83871892 -66.65301323 363.36302185 C-66.67759854 371.47543293 -66.68476206 379.58763153 -66.6697657 387.70006984 C-66.66262553 391.83380706 -66.66332801 395.96712531 -66.6861763 400.10081482 C-66.80774904 423.50561449 -65.99649249 444.42943921 -49.06713867 462.64648438 C-36.94463473 473.96554751 -21.57643496 481.61537558 -4.83935547 481.65560913 C-3.61131195 481.66106247 -2.38326843 481.66651581 -1.11801147 481.6721344 C0.22967524 481.67325394 1.57736201 481.6743045 2.92504883 481.67529297 C4.35460566 481.67996585 5.78416102 481.6851102 7.2137146 481.69068909 C10.28459533 481.7019359 13.35546654 481.71038631 16.42636108 481.71680832 C21.28443989 481.72752018 26.14244986 481.74777189 31.00048828 481.76992798 C44.8122239 481.83175044 58.62395431 481.88588947 72.43579102 481.91894531 C80.06974379 481.93729538 87.70358005 481.96623104 95.33744717 482.00695002 C99.37405242 482.02800358 103.41051102 482.04347505 107.44717407 482.04575729 C111.24267279 482.04790599 115.03786554 482.06379767 118.83327103 482.09014702 C120.22398821 482.09733146 121.6147425 482.09944511 123.00547409 482.09604454 C124.90796773 482.09213641 126.81047059 482.10839517 128.71289062 482.12557983 C130.30788643 482.13054505 130.30788643 482.13054505 131.93510437 482.13561058 C136.77181731 482.75109181 139.99925271 484.4787103 143.24926758 488.08007812 C146.68136719 493.03755534 146.53842805 497.60125018 145.93676758 503.51757812 C143.72993096 508.09472074 141.43755994 510.27779818 136.93676758 512.51757812 C133.97955704 512.89789486 133.97955704 512.89789486 130.64141846 512.90525818 C128.7369117 512.92011513 128.7369117 512.92011513 126.79393005 512.93527222 C125.39395045 512.93103417 123.99397178 512.92647631 122.59399414 512.92163086 C121.1134642 512.92733611 119.63293866 512.93430098 118.15242004 512.94242859 C114.13304443 512.96037542 110.11388703 512.95918668 106.09448338 512.9534862 C102.72819925 512.95039109 99.36195684 512.95649165 95.99567866 512.96252495 C88.03866906 512.9765787 80.08176673 512.97500684 72.12475586 512.96362305 C63.95364966 512.95219012 55.78287354 512.96613375 47.61181092 512.99301952 C40.57283813 513.0153016 33.53396795 513.02178452 26.49496245 513.01594311 C22.30200424 513.01259605 18.10925657 513.01483441 13.91632843 513.03219414 C9.9599039 513.0478575 6.003959 513.04349743 2.04755211 513.02488899 C0.60983803 513.02125337 -0.82791308 513.024161 -2.26559258 513.03477478 C-28.14606204 513.21096202 -51.58652267 503.49695593 -70.18041992 485.49023438 C-90.6855388 464.81366801 -98.41907362 438.87573832 -98.31719971 410.17236328 C-98.31951074 408.78432363 -98.32269154 407.3962852 -98.3266542 406.00824928 C-98.33492266 402.2359459 -98.33091358 398.46374506 -98.32468176 394.69144154 C-98.32012535 390.6068487 -98.32715673 386.52227254 -98.3326416 382.43768311 C-98.34150343 374.45250493 -98.33962796 366.4673645 -98.33381632 358.48218489 C-98.32928715 351.98854737 -98.32869234 345.49492038 -98.33086395 339.00128174 C-98.33117042 338.07469934 -98.33147688 337.14811694 -98.33179264 336.19345629 C-98.33243213 334.310726 -98.33308056 332.42799572 -98.33373782 330.54526544 C-98.33943171 312.91880585 -98.33289802 295.29236712 -98.32213709 277.66591096 C-98.31320244 262.56372187 -98.31475474 247.46156353 -98.32397461 232.359375 C-98.33469389 214.79307995 -98.33888248 197.22680315 -98.33275008 179.66050529 C-98.33211303 177.7849617 -98.33148429 175.90941811 -98.33086395 174.03387451 C-98.3305554 173.11123326 -98.33024685 172.18859201 -98.32992895 171.23799193 C-98.32820698 164.75722858 -98.33110634 158.27647688 -98.33582306 151.79571533 C-98.34145034 143.89058309 -98.33987675 135.98549053 -98.32926157 128.0803628 C-98.32402964 124.05227889 -98.32190551 120.02426099 -98.32855988 115.99617767 C-98.33457321 112.3000464 -98.33115671 108.60404156 -98.32060477 104.90792155 C-98.3173557 102.95648538 -98.32379324 101.00504025 -98.33071923 99.05361366 C-98.2040255 70.1545914 -88.47911311 46.28785173 -68.37573242 25.77539062 C-49.51548409 7.73753684 -25.63494008 -0.15780376 0 0 Z " fill="#FFFFFF" transform="translate(116.063232421875,-0.517578125)"/>
<path d="M0 0 C6.53192493 4.0655162 11.90173726 9.60528559 17.3059082 15.01538086 C18.19958603 15.90234146 19.09326385 16.78930206 20.01402283 17.70314026 C22.44412261 20.11571767 24.86783919 22.53460744 27.28983331 24.95531917 C28.80642348 26.47048066 30.3244319 27.98420628 31.84294701 29.49743843 C37.14879792 34.78484294 42.44951559 40.07733064 47.74536133 45.37475586 C52.67030247 50.30090071 57.60631697 55.21575395 62.54759723 60.12550443 C66.80291573 64.35464112 71.05045644 68.5914843 75.29206532 72.83437067 C77.81987148 75.36268539 80.35064762 77.88783531 82.88930702 80.40525627 C85.71781781 83.21074061 88.53007742 86.03217717 91.34106445 88.85522461 C92.17797821 89.68089935 93.01489197 90.5065741 93.87716675 91.35726929 C98.65483596 96.18721657 102.59463496 100.39357906 103.21484375 107.44140625 C103.12332031 108.14136719 103.03179687 108.84132813 102.9375 109.5625 C102.82728516 110.61630859 102.82728516 110.61630859 102.71484375 111.69140625 C100.47773144 118.9161788 94.22703469 124.0753184 89.04394531 129.26245117 C88.13937592 130.17534409 87.23480652 131.088237 86.30282593 132.02879333 C83.83234673 134.52111849 81.35541734 137.00693188 78.87654209 139.49090362 C77.32564796 141.04545163 75.77605745 142.60128737 74.22689056 144.15755653 C68.81549036 149.59341219 63.39842797 155.02355806 57.9765625 160.44897461 C52.93301337 165.49616086 47.90275666 170.55633577 42.87836003 175.62258166 C38.55417361 179.98151 34.22036781 184.33071838 29.8791244 188.67265874 C27.29074721 191.26182709 24.70646246 193.85477763 22.13199615 196.45778465 C19.25973441 199.36117699 16.3677538 202.24412895 13.47363281 205.12573242 C12.20774826 206.41386841 12.20774826 206.41386841 10.91629028 207.72802734 C5.83677754 212.7452469 1.32686822 216.71874778 -6.13633347 217.11279583 C-11.0530908 216.98441005 -14.10394533 214.94843739 -17.58984375 211.60546875 C-20.43087419 208.37094379 -20.92805306 205.79141635 -21.3125 201.5625 C-20.66731614 194.20740396 -16.43270751 190.00558664 -11.41723633 185.07666016 C-10.75355545 184.4125412 -10.08987457 183.74842224 -9.40608215 183.06417847 C-7.22177081 180.88194863 -5.02704381 178.71052363 -2.83203125 176.5390625 C-1.31108798 175.02371742 0.20919208 173.50770641 1.72883606 171.99105835 C5.72202938 168.00929605 9.72415099 164.03662706 13.72821045 160.0657959 C17.81578296 156.00896159 21.89483138 151.94357641 25.97460938 147.87890625 C33.97476174 139.91088733 41.98437407 131.95245061 50 124 C49.36786714 123.99940291 48.73573429 123.99880582 48.08444589 123.99819064 C10.62383609 123.96230114 -26.83668895 123.90566904 -64.29722378 123.82207905 C-68.79458441 123.81206152 -73.2919454 123.8022174 -77.78930664 123.79248047 C-79.13232903 123.78956841 -79.13232903 123.78956841 -80.50248318 123.78659752 C-95.00216936 123.75557161 -109.50183971 123.73859522 -124.00155283 123.72680578 C-138.87824508 123.71439728 -153.75485421 123.6869027 -168.63149399 123.64538693 C-177.81210262 123.62024289 -186.99257343 123.60688338 -196.17321699 123.60857043 C-202.46768563 123.60860017 -208.76201381 123.59398371 -215.05642772 123.56783572 C-218.68868567 123.5531797 -222.32065558 123.54499526 -225.95293808 123.55419731 C-229.89183126 123.56400728 -233.83021821 123.54298284 -237.76905823 123.51898193 C-238.91595283 123.52674235 -240.06284742 123.53450277 -241.24449641 123.54249835 C-247.71423442 123.4725588 -251.75087572 122.88629721 -257 119 C-260.03438782 115.25758836 -260.75301218 111.77509787 -261 107 C-260.18431889 101.18827209 -258.08067863 98.66985976 -253.65625 95.1640625 C-250.63700781 93.04204795 -248.74009198 92.87204211 -245.08431053 92.8613348 C-244.03879316 92.85586036 -242.99327578 92.85038591 -241.91607606 92.84474558 C-240.75850821 92.84376747 -239.60094035 92.84278936 -238.40829468 92.84178162 C-236.57425817 92.83437465 -236.57425817 92.83437465 -234.70317042 92.82681805 C-231.29860961 92.81407393 -227.89409002 92.80580871 -224.48951483 92.79939139 C-220.8221554 92.79140247 -217.15481692 92.77769953 -213.48747253 92.76467896 C-207.12997466 92.74289475 -200.77247469 92.72475739 -194.41495895 92.70907402 C-185.22297881 92.68639307 -176.03102185 92.6582478 -166.83906133 92.62875474 C-151.92689746 92.58105703 -137.01472413 92.53779877 -122.10253906 92.49731445 C-107.6139248 92.4579706 -93.12531895 92.41654705 -78.63671875 92.37231445 C-77.74413252 92.36959018 -76.85154629 92.36686591 -75.93191199 92.36405908 C-71.45421585 92.35037979 -66.97651983 92.33665948 -62.49882388 92.32291877 C-25.33256672 92.20891978 11.83370839 92.102118 49 92 C48.16728073 91.17616318 47.33456146 90.35232635 46.47660828 89.50352478 C38.62333567 81.73140322 30.78069526 73.94869231 22.94829082 66.15553951 C18.92140714 62.14951397 14.89089455 58.14728772 10.85180664 54.15356445 C6.95267017 50.29794734 3.0634386 46.43258904 -0.81917381 42.56033516 C-2.30081158 41.08607769 -3.78596078 39.61534041 -5.274683 38.14823723 C-7.36225732 36.08977618 -9.43689793 34.01905452 -11.5090332 31.94506836 C-12.12474686 31.34373581 -12.74046051 30.74240326 -13.37483215 30.12284851 C-18.03303396 25.41954175 -20.59764102 21.21887186 -21.4375 14.5 C-20.72677579 8.81420631 -18.55342417 5.47764738 -14.4375 1.5625 C-9.64550879 -0.61567782 -5.14850417 -1.25672149 0 0 Z " fill="#FFFFFF" transform="translate(391,148)"/>
</svg>
